<?xml version="1.0" encoding="UTF-8" standalone="no"?>
<!DOCTYPE svg PUBLIC "-//W3C//DTD SVG 1.1//EN" "http://www.w3.org/Graphics/SVG/1.1/DTD/svg11.dtd">
<svg width="100%" height="100%" viewBox="0 0 512 512" version="1.1" xmlns="http://www.w3.org/2000/svg" xmlns:xlink="http://www.w3.org/1999/xlink" xml:space="preserve" xmlns:serif="http://www.serif.com/" style="fill-rule:evenodd;clip-rule:evenodd;stroke-linejoin:round;stroke-miterlimit:2;">
    <g transform="matrix(1,0,0,1,-649,0)">
        <g id="EpicGames_White_Icon" transform="matrix(1,0,0,1,-0.635067,0)">
            <rect x="649.635" y="0" width="512" height="512" style="fill:none;"/>
            <g transform="matrix(0.4893,0,0,0.4893,660.985,11.3502)">
                <path id="background" d="M500.051,999.987L499.948,999.987L499.948,999.986C486.854,1000.25 479.315,997.024 461.287,988.759L114.013,843.264C106.822,840.37 102.469,838.067 96.093,834.94C91.551,831.842 86.949,828.703 83.106,824.77C80.283,821.882 78.23,818.29 76.335,814.723C69.161,801.218 69.117,783.216 69.117,768.366L69.117,78.285C69.117,21.096 90.213,-0 147.376,-0L852.624,-0C909.785,-0 930.883,21.096 930.883,78.285L930.883,768.366C930.883,783.215 930.837,801.22 923.663,814.723C921.768,818.29 919.715,821.882 916.892,824.77C913.05,828.703 908.448,831.842 903.907,834.94C897.529,838.067 893.178,840.37 885.985,843.264L538.713,988.759C520.683,997.024 513.145,1000.25 500.051,999.986L500.051,999.987ZM333.845,862.987L667.728,862.987L497.309,919.187L333.845,862.987ZM263.228,607.84L261.486,607.68L259.733,607.52L252.928,607.52L251.336,607.68L249.752,607.84L248.172,607.998L246.588,608.158L244.997,608.476L243.413,608.635L241.831,608.953L240.408,609.431L238.817,609.749L237.395,610.226L235.972,610.546L234.538,611.181L232.956,611.661L231.692,612.137L230.108,612.934L228.677,613.569L227.253,614.207L225.831,615.002L224.398,615.798L222.974,616.595L221.712,617.39L220.437,618.186L219.173,619.141L217.9,619.936L216.636,620.891L215.53,621.847L214.257,622.962L213.152,623.915L212.039,625.032L210.933,626.143L209.978,627.258L208.874,628.371L207.918,629.488L206.972,630.761L206.017,632.034L205.072,633.307L204.275,634.58L203.481,635.853L202.693,637.128L201.898,638.401L201.102,639.834L200.476,641.267L199.838,642.699L199.203,644.132L198.574,645.563L197.937,647.156L197.459,648.589L196.981,650.179L196.515,651.612L196.195,653.205L195.717,654.796L195.4,656.228L195.241,657.821L194.924,659.403L194.762,661.154L194.613,662.746L194.613,664.337L194.455,666.088L194.455,671.341L194.613,672.932L194.762,674.525L194.924,676.117L195.08,677.548L195.4,679.141L195.559,680.574L195.877,682.164L196.355,683.599L196.673,685.19L197.141,686.621L197.459,688.054L198.096,689.488L198.574,690.761L199.203,692.192L199.838,693.625L200.476,695.058L201.102,696.491L201.898,697.764L202.693,699.197L203.481,700.471L204.275,701.743L205.221,703.017L206.017,704.29L206.972,705.405L207.918,706.678L208.874,707.792L209.978,708.907L211.093,710.022L212.197,710.975L213.312,712.09L214.417,713.045L215.53,714L216.796,714.956L218.06,715.909L219.333,716.866L220.597,717.66L221.87,718.457L223.294,719.252L224.556,720.04L225.991,720.836L227.413,721.473L228.837,722.109L230.27,722.744L231.85,723.382L233.274,723.859L234.698,724.495L236.13,724.974L237.712,725.292L239.136,725.77L240.727,726.088L242.149,726.405L243.733,726.725L245.315,727.043L246.908,727.203L248.489,727.362L250.071,727.52L251.813,727.68L253.395,727.838L260.213,727.838L261.953,727.68L263.545,727.52L265.287,727.362L266.869,727.203L268.611,727.043L270.195,726.883L271.785,726.565L273.367,726.247L274.791,725.93L276.384,725.612L277.806,725.132L279.388,724.657L280.812,724.177L282.243,723.7L283.669,723.222L285.091,722.585L286.683,721.949L288.105,721.312L289.687,720.676L291.111,719.879L292.542,719.252L293.966,718.457L295.39,717.66L296.823,716.866L298.087,716.069L299.36,715.273L300.624,714.318L301.888,713.523L303.161,712.568L304.267,711.77L305.54,710.815L306.645,709.862L306.645,658.139L254.35,658.139L254.35,681.369L277.488,681.369L277.488,695.853L269.566,699.516L263.228,700.789L259.733,701.107L256.092,701.107L254.35,700.947L252.768,700.789L251.186,700.471L249.594,700.152L248.012,699.674L246.428,699.197L244.997,698.561L243.575,697.923L242.149,697.286L240.876,696.491L239.614,695.695L238.35,694.74L237.075,693.785L235.972,692.83L235.015,691.716L233.911,690.601L232.956,689.488L232.01,688.213L230.419,685.667L229.632,684.235L228.997,682.8L228.359,681.209L227.891,679.936L227.413,678.503L227.095,677.072L226.776,675.638L226.458,674.207L226.298,672.614L226.14,671.181L225.991,669.591L225.991,665.928L226.14,664.337L226.298,662.746L226.618,660.994L226.935,659.563L227.253,657.979L227.731,656.388L228.359,654.955L228.837,653.523L229.472,652.09L230.27,650.817L231.054,649.384L231.85,648.111L232.638,646.996L233.593,645.723L234.698,644.608L235.653,643.495L236.757,642.54L237.872,641.584L238.977,640.631L240.251,639.834L241.514,639.037L242.787,638.241L244.211,637.606L245.635,636.968L247.057,636.491L248.489,636.015L249.913,635.695L251.495,635.377L252.928,635.218L254.51,635.06L257.834,635.06L259.584,635.218L261.326,635.377L262.91,635.535L264.492,635.853L266.074,636.173L267.506,636.491L268.929,636.968L270.353,637.446L271.626,637.923L272.89,638.561L274.163,639.196L275.585,639.994L276.851,640.787L278.124,641.584L279.388,642.38L280.652,643.335L281.925,644.132L283.189,645.245L284.462,646.201L302.684,624.075L301.42,623.12L300.147,622.006L298.882,621.051L297.609,620.096L296.345,619.299L295.081,618.345L293.648,617.548L292.384,616.753L290.962,615.957L289.687,615.162L288.265,614.525L286.841,613.729L285.408,613.092L283.986,612.454L282.562,611.819L281.13,611.341L279.865,610.864L278.443,610.546L277.011,610.068L275.585,609.749L274.163,609.431L272.732,609.113L271.148,608.795L269.566,608.476L268.133,608.318L266.391,607.998L264.81,607.84L263.228,607.84ZM762.756,608.158L761.015,607.998L759.273,607.84L752.457,607.84L750.875,607.998L749.293,608.158L747.7,608.318L746.118,608.476L744.695,608.795L743.113,609.113L741.682,609.431L740.256,609.749L738.992,610.068L737.559,610.546L735.977,611.181L734.395,611.661L732.962,612.296L731.54,613.092L730.116,613.729L728.683,614.525L727.421,615.32L726.155,616.275L724.882,617.23L723.778,618.026L722.505,619.141L721.399,620.416L720.285,621.529L719.181,622.802L718.224,624.075L717.278,625.35L716.484,626.781L715.696,628.215L715.06,629.646L714.423,631.079L713.796,632.512L713.478,633.943L713.001,635.377L712.681,636.81L712.363,638.241L712.204,639.834L712.046,641.267L711.886,642.857L711.886,646.52L712.046,648.269L712.204,649.862L712.363,651.452L712.681,652.885L713.001,654.478L713.478,655.751L713.945,657.184L714.423,658.458L715.06,659.563L715.856,660.994L716.642,662.269L717.439,663.382L718.384,664.495L719.339,665.61L720.445,666.725L721.558,667.838L722.663,668.795L723.936,669.591L725.2,670.546L726.624,671.341L727.897,672.137L729.481,672.932L730.903,673.727L732.494,674.365L734.077,675L735.659,675.638L737.401,676.275L738.834,676.753L740.256,677.23L741.682,677.708L743.262,678.028L744.695,678.503L746.278,678.981L747.858,679.301L749.451,679.778L751.033,680.096L752.775,680.574L754.358,680.891L756.098,681.369L757.691,681.687L759.273,682.164L760.697,682.482L762.13,682.962L763.392,683.279L764.498,683.599L766.398,684.393L767.99,685.03L769.413,685.667L770.677,686.303L771.951,687.258L773.056,688.213L773.853,689.327L774.49,690.919L774.647,692.83L774.647,693.147L774.49,694.74L774.011,696.171L773.374,697.446L772.429,698.561L771.156,699.516L770.05,700.152L768.777,700.629L767.353,700.947L765.931,701.267L764.338,701.585L762.597,701.743L759.113,701.743L757.373,701.585L755.789,701.585L754.199,701.267L752.457,701.107L749.293,700.471L747.7,700.152L746.278,699.674L744.695,699.197L743.113,698.719L741.682,698.083L740.256,697.606L738.834,696.968L737.401,696.333L735.977,695.695L734.715,694.898L733.28,694.262L732.018,693.465L730.594,692.512L729.321,691.716L727.897,690.761L726.624,689.806L725.2,688.851L723.936,687.896L706.661,708.589L707.925,709.702L709.038,710.657L710.304,711.612L711.577,712.568L714.105,714.478L715.378,715.273L716.642,716.069L718.075,716.866L719.339,717.66L720.763,718.457L722.194,719.094L723.618,719.879L725.042,720.516L726.473,721.154L728.057,721.791L729.481,722.267L731.063,722.744L732.494,723.382L734.077,723.859L735.659,724.337L737.083,724.657L738.674,725.132L740.256,725.45L741.838,725.77L743.422,726.088L745.014,726.405L746.596,726.565L748.178,726.883L749.92,727.043L751.511,727.203L753.094,727.362L754.834,727.362L756.418,727.52L763.074,727.52L764.658,727.362L766.398,727.203L767.99,727.043L769.413,726.883L770.996,726.725L772.589,726.405L774.011,726.088L775.435,725.77L777.017,725.45L778.45,724.974L780.032,724.495L781.614,724.019L783.195,723.382L784.788,722.744L786.21,721.949L787.634,721.312L789.067,720.516L790.331,719.561L791.595,718.776L792.868,717.821L793.974,716.866L795.246,715.751L796.192,714.796L797.307,713.681L798.251,712.568L799.049,711.295L799.995,710.022L800.79,708.747L801.586,707.474L802.212,706.043L802.85,704.768L803.485,703.335L803.965,701.743L804.274,700.31L804.75,698.719L805.069,697.126L805.227,695.377L805.387,693.785L805.547,692.034L805.547,688.213L805.387,686.463L805.227,684.872L804.592,681.687L804.274,680.254L803.805,678.821L803.327,677.39L802.692,676.117L801.895,674.683L801.108,673.41L800.153,671.979L799.207,670.704L798.093,669.591L796.989,668.316L795.716,667.203L794.452,666.088L793.186,665.292L791.913,664.337L790.651,663.542L789.227,662.746L787.794,661.949L786.21,661.154L784.628,660.518L783.046,659.721L781.296,659.094L779.874,658.616L778.45,658.139L776.857,657.661L775.435,657.184L773.853,656.706L772.269,656.228L770.677,655.911L768.935,655.433L767.353,654.955L765.613,654.638L763.871,654.158L762.13,653.682L760.377,653.205L758.795,652.885L757.373,652.408L755.94,652.09L754.676,651.612L753.412,651.294L751.511,650.659L749.76,650.021L748.178,649.384L746.914,648.589L745.481,647.793L744.377,646.678L743.739,645.723L742.955,643.972L742.793,641.904L742.793,641.584L742.955,639.994L743.58,638.561L744.535,637.128L745.959,635.853L747.074,635.218L748.338,634.58L749.76,634.262L751.353,633.943L753.094,633.625L756.578,633.625L758,633.785L759.592,633.943L761.174,634.103L762.756,634.422L764.338,634.74L765.931,635.06L767.513,635.535L769.095,636.015L770.838,636.491L772.111,637.128L773.533,637.606L774.798,638.241L776.23,638.879L777.494,639.514L778.917,640.152L780.191,640.949L781.614,641.584L782.887,642.54L784.152,643.335L785.575,644.132L786.848,645.086L802.212,623.12L800.95,622.166L799.686,621.211L798.413,620.254L797.147,619.46L795.716,618.505L794.452,617.708L793.028,616.913L791.595,616.117L790.331,615.48L788.907,614.684L787.316,614.047L785.892,613.41L784.47,612.774L783.046,612.296L781.456,611.661L780.032,611.341L778.608,610.864L777.017,610.386L775.593,610.068L774.011,609.749L772.429,609.431L770.996,609.113L769.413,608.795L767.671,608.635L766.089,608.318L764.338,608.158L762.756,608.158ZM695.042,636.015L695.042,609.749L603.451,609.749L603.451,725.612L695.837,725.612L695.837,699.355L633.712,699.355L633.712,679.618L688.861,679.618L688.861,654.955L633.712,654.955L633.712,636.015L695.042,636.015ZM580.05,725.612L580.05,609.749L547.57,609.749L519.36,655.35L491.316,609.749L458.825,609.749L458.825,725.612L488.937,725.612L488.937,657.418L518.731,703.495L519.36,703.495L549.47,657.098L549.47,725.612L580.05,725.612ZM445.95,725.612L396.822,608.953L367.506,608.953L318.386,725.612L350.389,725.612L359.106,703.813L404.583,703.813L413.302,725.612L445.95,725.612ZM395.239,679.301L381.925,645.48L368.461,679.301L395.239,679.301ZM732.345,129.602L703.993,129.602C656.577,129.603 633.131,153.152 633.131,200.809L633.131,448.383C633.131,496.042 656.578,519.59 703.993,519.59L732.887,519.59C780.313,519.59 803.748,496.042 803.748,448.383L803.748,359.106L746.512,359.106L746.512,445.649C746.512,460.987 739.423,468.103 724.713,468.103L713.804,468.103C698.544,468.103 691.455,460.987 691.455,445.649L691.455,203.543C691.455,188.207 698.544,181.091 713.804,181.091L723.617,181.091C738.336,181.091 745.425,188.207 745.425,203.543L745.425,278.59L802.654,278.59L802.654,200.257C802.654,152.609 779.76,129.602 732.345,129.602ZM602.307,132.889L543.976,132.889L543.976,516.304L602.307,516.304L602.307,132.889ZM446.804,132.889L355.231,132.889L355.231,516.304L413.555,516.304L413.555,377.175L446.804,377.175C494.229,377.175 517.665,353.627 517.665,305.979L517.665,204.096C517.665,156.439 494.229,132.889 446.804,132.889ZM325.989,132.89L196.252,132.89L196.252,516.303L327.076,516.303L327.076,463.176L254.575,463.176L254.575,347.597L323.255,347.597L323.255,294.472L254.575,294.472L254.575,186.016L325.989,186.016L325.989,132.89ZM437.543,325.697L413.555,325.697L413.555,184.377L437.543,184.377C452.262,184.378 459.341,191.495 459.341,206.83L459.341,303.234C459.341,318.572 452.262,325.697 437.543,325.697Z" style="fill:white;"/>
            </g>
        </g>
    </g>
</svg>
