<?xml version="1.0" encoding="UTF-8" standalone="no"?>
<!DOCTYPE svg PUBLIC "-//W3C//DTD SVG 1.1//EN" "http://www.w3.org/Graphics/SVG/1.1/DTD/svg11.dtd">
<svg width="100%" height="100%" viewBox="0 0 512 512" version="1.1" xmlns="http://www.w3.org/2000/svg" xmlns:xlink="http://www.w3.org/1999/xlink" xml:space="preserve" xmlns:serif="http://www.serif.com/" style="fill-rule:evenodd;clip-rule:evenodd;stroke-linejoin:round;stroke-miterlimit:2;">
    <g id="UnrealEngine_White_Icon" transform="matrix(0.729491,0,0,0.720034,0,-113.435)">
        <rect x="0" y="157.541" width="701.859" height="711.078" style="fill:none;"/>
        <g transform="matrix(0.670773,0,0,0.679583,15.5431,173.288)">
            <g transform="matrix(0.4,0,0,0.4,0,0)">
                <path d="M1250,59.411C1907.08,59.411 2440.59,594.106 2440.59,1250C2440.59,1905.89 1905.89,2440.59 1250,2440.59C594.106,2440.59 59.411,1907.08 59.411,1250C59.411,592.918 594.106,59.411 1250,59.411M1250,0C559.648,0 0,559.648 0,1250C0,1940.35 559.648,2500 1250,2500C1940.35,2500 2500,1940.35 2500,1250C2500,559.648 1941.54,0 1250,0Z" style="fill:white;fill-rule:nonzero;"/>
            </g>
            <g transform="matrix(0.4,0,0,0.4,0,0)">
                <path d="M1163.26,501.426C1163.26,501.426 881.654,581.036 628.565,849.572C375.475,1118.11 343.394,1309.41 343.394,1452C399.24,1356.94 743.821,832.937 824.62,1082.46L824.62,1678.94C824.62,1678.94 819.867,1759.74 696.293,1727.66C733.127,1796.58 923.241,1966.49 1266.63,2000.95C1345.06,1922.53 1447.24,1809.65 1447.24,1809.65L1618.35,1954.61C1618.35,1954.61 1926.09,1754.99 2047.29,1465.07C1934.41,1538.74 1797.77,1709.84 1726.47,1589.83L1726.47,863.831C1726.47,863.831 1909.46,589.354 1937.98,576.283C1865.49,589.354 1610.03,673.717 1475.76,847.196C1437.74,805.608 1331.99,804.42 1331.99,804.42C1331.99,804.42 1415.16,873.337 1416.35,936.312C1417.54,999.287 1416.35,1524.48 1416.35,1585.08C1359.32,1643.3 1298.72,1674.19 1259.51,1674.19C1168.01,1674.19 1141.87,1642.11 1116.92,1610.03L1116.92,847.196C1116.92,847.196 1071.77,885.219 1036.12,823.432C1000.48,761.644 999.287,641.635 1163.26,501.426Z" style="fill:white;fill-rule:nonzero;"/>
            </g>
        </g>
    </g>
</svg>
